<mxfile host="app.diagrams.net" modified="2022-04-10T16:55:14.914Z" agent="5.0 (Macintosh; Intel Mac OS X 10_15_7) AppleWebKit/605.1.15 (KHTML, like Gecko) Version/15.4 Safari/605.1.15" etag="1E07SF5z498TaTnlZI3y" version="17.4.1" type="github">
  <diagram id="C5RBs43oDa-KdzZeNtuy" name="Page-1">
    <mxGraphModel dx="1963" dy="642" grid="1" gridSize="10" guides="1" tooltips="1" connect="1" arrows="1" fold="1" page="1" pageScale="1" pageWidth="827" pageHeight="1169" math="0" shadow="0">
      <root>
        <mxCell id="WIyWlLk6GJQsqaUBKTNV-0" />
        <mxCell id="WIyWlLk6GJQsqaUBKTNV-1" parent="WIyWlLk6GJQsqaUBKTNV-0" />
        <mxCell id="zkfFHV4jXpPFQw0GAbJ--0" value="Person" style="swimlane;fontStyle=2;align=center;verticalAlign=top;childLayout=stackLayout;horizontal=1;startSize=26;horizontalStack=0;resizeParent=1;resizeLast=0;collapsible=1;marginBottom=0;rounded=0;shadow=0;strokeWidth=1;" parent="WIyWlLk6GJQsqaUBKTNV-1" vertex="1">
          <mxGeometry x="220" y="120" width="160" height="138" as="geometry">
            <mxRectangle x="230" y="140" width="160" height="26" as="alternateBounds" />
          </mxGeometry>
        </mxCell>
        <mxCell id="zkfFHV4jXpPFQw0GAbJ--1" value="Name" style="text;align=left;verticalAlign=top;spacingLeft=4;spacingRight=4;overflow=hidden;rotatable=0;points=[[0,0.5],[1,0.5]];portConstraint=eastwest;" parent="zkfFHV4jXpPFQw0GAbJ--0" vertex="1">
          <mxGeometry y="26" width="160" height="26" as="geometry" />
        </mxCell>
        <mxCell id="zkfFHV4jXpPFQw0GAbJ--2" value="Phone Number" style="text;align=left;verticalAlign=top;spacingLeft=4;spacingRight=4;overflow=hidden;rotatable=0;points=[[0,0.5],[1,0.5]];portConstraint=eastwest;rounded=0;shadow=0;html=0;" parent="zkfFHV4jXpPFQw0GAbJ--0" vertex="1">
          <mxGeometry y="52" width="160" height="26" as="geometry" />
        </mxCell>
        <mxCell id="zkfFHV4jXpPFQw0GAbJ--3" value="Email Address" style="text;align=left;verticalAlign=top;spacingLeft=4;spacingRight=4;overflow=hidden;rotatable=0;points=[[0,0.5],[1,0.5]];portConstraint=eastwest;rounded=0;shadow=0;html=0;" parent="zkfFHV4jXpPFQw0GAbJ--0" vertex="1">
          <mxGeometry y="78" width="160" height="26" as="geometry" />
        </mxCell>
        <mxCell id="zkfFHV4jXpPFQw0GAbJ--4" value="" style="line;html=1;strokeWidth=1;align=left;verticalAlign=middle;spacingTop=-1;spacingLeft=3;spacingRight=3;rotatable=0;labelPosition=right;points=[];portConstraint=eastwest;" parent="zkfFHV4jXpPFQw0GAbJ--0" vertex="1">
          <mxGeometry y="104" width="160" height="8" as="geometry" />
        </mxCell>
        <mxCell id="zkfFHV4jXpPFQw0GAbJ--5" value="Purchase Parking Pass" style="text;align=left;verticalAlign=top;spacingLeft=4;spacingRight=4;overflow=hidden;rotatable=0;points=[[0,0.5],[1,0.5]];portConstraint=eastwest;" parent="zkfFHV4jXpPFQw0GAbJ--0" vertex="1">
          <mxGeometry y="112" width="160" height="26" as="geometry" />
        </mxCell>
        <mxCell id="zkfFHV4jXpPFQw0GAbJ--6" value="Student" style="swimlane;fontStyle=0;align=center;verticalAlign=top;childLayout=stackLayout;horizontal=1;startSize=26;horizontalStack=0;resizeParent=1;resizeLast=0;collapsible=1;marginBottom=0;rounded=0;shadow=0;strokeWidth=1;" parent="WIyWlLk6GJQsqaUBKTNV-1" vertex="1">
          <mxGeometry x="120" y="360" width="160" height="138" as="geometry">
            <mxRectangle x="130" y="380" width="160" height="26" as="alternateBounds" />
          </mxGeometry>
        </mxCell>
        <mxCell id="zkfFHV4jXpPFQw0GAbJ--7" value="Student Number" style="text;align=left;verticalAlign=top;spacingLeft=4;spacingRight=4;overflow=hidden;rotatable=0;points=[[0,0.5],[1,0.5]];portConstraint=eastwest;" parent="zkfFHV4jXpPFQw0GAbJ--6" vertex="1">
          <mxGeometry y="26" width="160" height="26" as="geometry" />
        </mxCell>
        <mxCell id="zkfFHV4jXpPFQw0GAbJ--8" value="Average Mark" style="text;align=left;verticalAlign=top;spacingLeft=4;spacingRight=4;overflow=hidden;rotatable=0;points=[[0,0.5],[1,0.5]];portConstraint=eastwest;rounded=0;shadow=0;html=0;" parent="zkfFHV4jXpPFQw0GAbJ--6" vertex="1">
          <mxGeometry y="52" width="160" height="26" as="geometry" />
        </mxCell>
        <mxCell id="zkfFHV4jXpPFQw0GAbJ--9" value="" style="line;html=1;strokeWidth=1;align=left;verticalAlign=middle;spacingTop=-1;spacingLeft=3;spacingRight=3;rotatable=0;labelPosition=right;points=[];portConstraint=eastwest;" parent="zkfFHV4jXpPFQw0GAbJ--6" vertex="1">
          <mxGeometry y="78" width="160" height="8" as="geometry" />
        </mxCell>
        <mxCell id="zkfFHV4jXpPFQw0GAbJ--10" value="Is Eligible To Enroll" style="text;align=left;verticalAlign=top;spacingLeft=4;spacingRight=4;overflow=hidden;rotatable=0;points=[[0,0.5],[1,0.5]];portConstraint=eastwest;fontStyle=4" parent="zkfFHV4jXpPFQw0GAbJ--6" vertex="1">
          <mxGeometry y="86" width="160" height="26" as="geometry" />
        </mxCell>
        <mxCell id="zkfFHV4jXpPFQw0GAbJ--11" value="Get Seminars Taken" style="text;align=left;verticalAlign=top;spacingLeft=4;spacingRight=4;overflow=hidden;rotatable=0;points=[[0,0.5],[1,0.5]];portConstraint=eastwest;" parent="zkfFHV4jXpPFQw0GAbJ--6" vertex="1">
          <mxGeometry y="112" width="160" height="26" as="geometry" />
        </mxCell>
        <mxCell id="zkfFHV4jXpPFQw0GAbJ--12" value="" style="endArrow=block;endSize=10;endFill=0;shadow=0;strokeWidth=1;rounded=0;edgeStyle=elbowEdgeStyle;elbow=vertical;" parent="WIyWlLk6GJQsqaUBKTNV-1" source="zkfFHV4jXpPFQw0GAbJ--6" target="zkfFHV4jXpPFQw0GAbJ--0" edge="1">
          <mxGeometry width="160" relative="1" as="geometry">
            <mxPoint x="200" y="203" as="sourcePoint" />
            <mxPoint x="200" y="203" as="targetPoint" />
          </mxGeometry>
        </mxCell>
        <mxCell id="zkfFHV4jXpPFQw0GAbJ--13" value="Professor" style="swimlane;fontStyle=0;align=center;verticalAlign=top;childLayout=stackLayout;horizontal=1;startSize=26;horizontalStack=0;resizeParent=1;resizeLast=0;collapsible=1;marginBottom=0;rounded=0;shadow=0;strokeWidth=1;" parent="WIyWlLk6GJQsqaUBKTNV-1" vertex="1">
          <mxGeometry x="330" y="360" width="160" height="70" as="geometry">
            <mxRectangle x="340" y="380" width="170" height="26" as="alternateBounds" />
          </mxGeometry>
        </mxCell>
        <mxCell id="zkfFHV4jXpPFQw0GAbJ--14" value="Salary" style="text;align=left;verticalAlign=top;spacingLeft=4;spacingRight=4;overflow=hidden;rotatable=0;points=[[0,0.5],[1,0.5]];portConstraint=eastwest;" parent="zkfFHV4jXpPFQw0GAbJ--13" vertex="1">
          <mxGeometry y="26" width="160" height="26" as="geometry" />
        </mxCell>
        <mxCell id="zkfFHV4jXpPFQw0GAbJ--15" value="" style="line;html=1;strokeWidth=1;align=left;verticalAlign=middle;spacingTop=-1;spacingLeft=3;spacingRight=3;rotatable=0;labelPosition=right;points=[];portConstraint=eastwest;" parent="zkfFHV4jXpPFQw0GAbJ--13" vertex="1">
          <mxGeometry y="52" width="160" height="8" as="geometry" />
        </mxCell>
        <mxCell id="zkfFHV4jXpPFQw0GAbJ--16" value="" style="endArrow=block;endSize=10;endFill=0;shadow=0;strokeWidth=1;rounded=0;edgeStyle=elbowEdgeStyle;elbow=vertical;" parent="WIyWlLk6GJQsqaUBKTNV-1" source="zkfFHV4jXpPFQw0GAbJ--13" target="zkfFHV4jXpPFQw0GAbJ--0" edge="1">
          <mxGeometry width="160" relative="1" as="geometry">
            <mxPoint x="210" y="373" as="sourcePoint" />
            <mxPoint x="310" y="271" as="targetPoint" />
          </mxGeometry>
        </mxCell>
        <mxCell id="zkfFHV4jXpPFQw0GAbJ--17" value="Address" style="swimlane;fontStyle=0;align=center;verticalAlign=top;childLayout=stackLayout;horizontal=1;startSize=26;horizontalStack=0;resizeParent=1;resizeLast=0;collapsible=1;marginBottom=0;rounded=0;shadow=0;strokeWidth=1;" parent="WIyWlLk6GJQsqaUBKTNV-1" vertex="1">
          <mxGeometry x="508" y="120" width="160" height="216" as="geometry">
            <mxRectangle x="550" y="140" width="160" height="26" as="alternateBounds" />
          </mxGeometry>
        </mxCell>
        <mxCell id="zkfFHV4jXpPFQw0GAbJ--18" value="Street" style="text;align=left;verticalAlign=top;spacingLeft=4;spacingRight=4;overflow=hidden;rotatable=0;points=[[0,0.5],[1,0.5]];portConstraint=eastwest;" parent="zkfFHV4jXpPFQw0GAbJ--17" vertex="1">
          <mxGeometry y="26" width="160" height="26" as="geometry" />
        </mxCell>
        <mxCell id="zkfFHV4jXpPFQw0GAbJ--19" value="City" style="text;align=left;verticalAlign=top;spacingLeft=4;spacingRight=4;overflow=hidden;rotatable=0;points=[[0,0.5],[1,0.5]];portConstraint=eastwest;rounded=0;shadow=0;html=0;" parent="zkfFHV4jXpPFQw0GAbJ--17" vertex="1">
          <mxGeometry y="52" width="160" height="26" as="geometry" />
        </mxCell>
        <mxCell id="zkfFHV4jXpPFQw0GAbJ--20" value="State" style="text;align=left;verticalAlign=top;spacingLeft=4;spacingRight=4;overflow=hidden;rotatable=0;points=[[0,0.5],[1,0.5]];portConstraint=eastwest;rounded=0;shadow=0;html=0;" parent="zkfFHV4jXpPFQw0GAbJ--17" vertex="1">
          <mxGeometry y="78" width="160" height="26" as="geometry" />
        </mxCell>
        <mxCell id="zkfFHV4jXpPFQw0GAbJ--21" value="Postal Code" style="text;align=left;verticalAlign=top;spacingLeft=4;spacingRight=4;overflow=hidden;rotatable=0;points=[[0,0.5],[1,0.5]];portConstraint=eastwest;rounded=0;shadow=0;html=0;" parent="zkfFHV4jXpPFQw0GAbJ--17" vertex="1">
          <mxGeometry y="104" width="160" height="26" as="geometry" />
        </mxCell>
        <mxCell id="zkfFHV4jXpPFQw0GAbJ--22" value="Country" style="text;align=left;verticalAlign=top;spacingLeft=4;spacingRight=4;overflow=hidden;rotatable=0;points=[[0,0.5],[1,0.5]];portConstraint=eastwest;rounded=0;shadow=0;html=0;" parent="zkfFHV4jXpPFQw0GAbJ--17" vertex="1">
          <mxGeometry y="130" width="160" height="26" as="geometry" />
        </mxCell>
        <mxCell id="zkfFHV4jXpPFQw0GAbJ--23" value="" style="line;html=1;strokeWidth=1;align=left;verticalAlign=middle;spacingTop=-1;spacingLeft=3;spacingRight=3;rotatable=0;labelPosition=right;points=[];portConstraint=eastwest;" parent="zkfFHV4jXpPFQw0GAbJ--17" vertex="1">
          <mxGeometry y="156" width="160" height="8" as="geometry" />
        </mxCell>
        <mxCell id="zkfFHV4jXpPFQw0GAbJ--24" value="Validate" style="text;align=left;verticalAlign=top;spacingLeft=4;spacingRight=4;overflow=hidden;rotatable=0;points=[[0,0.5],[1,0.5]];portConstraint=eastwest;" parent="zkfFHV4jXpPFQw0GAbJ--17" vertex="1">
          <mxGeometry y="164" width="160" height="26" as="geometry" />
        </mxCell>
        <mxCell id="zkfFHV4jXpPFQw0GAbJ--25" value="Output As Label" style="text;align=left;verticalAlign=top;spacingLeft=4;spacingRight=4;overflow=hidden;rotatable=0;points=[[0,0.5],[1,0.5]];portConstraint=eastwest;" parent="zkfFHV4jXpPFQw0GAbJ--17" vertex="1">
          <mxGeometry y="190" width="160" height="26" as="geometry" />
        </mxCell>
        <mxCell id="zkfFHV4jXpPFQw0GAbJ--26" value="" style="endArrow=open;shadow=0;strokeWidth=1;rounded=0;endFill=1;edgeStyle=elbowEdgeStyle;elbow=vertical;" parent="WIyWlLk6GJQsqaUBKTNV-1" source="zkfFHV4jXpPFQw0GAbJ--0" target="zkfFHV4jXpPFQw0GAbJ--17" edge="1">
          <mxGeometry x="0.5" y="41" relative="1" as="geometry">
            <mxPoint x="380" y="192" as="sourcePoint" />
            <mxPoint x="540" y="192" as="targetPoint" />
            <mxPoint x="-40" y="32" as="offset" />
          </mxGeometry>
        </mxCell>
        <mxCell id="zkfFHV4jXpPFQw0GAbJ--27" value="0..1" style="resizable=0;align=left;verticalAlign=bottom;labelBackgroundColor=none;fontSize=12;" parent="zkfFHV4jXpPFQw0GAbJ--26" connectable="0" vertex="1">
          <mxGeometry x="-1" relative="1" as="geometry">
            <mxPoint y="4" as="offset" />
          </mxGeometry>
        </mxCell>
        <mxCell id="zkfFHV4jXpPFQw0GAbJ--28" value="1" style="resizable=0;align=right;verticalAlign=bottom;labelBackgroundColor=none;fontSize=12;" parent="zkfFHV4jXpPFQw0GAbJ--26" connectable="0" vertex="1">
          <mxGeometry x="1" relative="1" as="geometry">
            <mxPoint x="-7" y="4" as="offset" />
          </mxGeometry>
        </mxCell>
        <mxCell id="zkfFHV4jXpPFQw0GAbJ--29" value="lives at" style="text;html=1;resizable=0;points=[];;align=center;verticalAlign=middle;labelBackgroundColor=none;rounded=0;shadow=0;strokeWidth=1;fontSize=12;" parent="zkfFHV4jXpPFQw0GAbJ--26" vertex="1" connectable="0">
          <mxGeometry x="0.5" y="49" relative="1" as="geometry">
            <mxPoint x="-38" y="40" as="offset" />
          </mxGeometry>
        </mxCell>
        <mxCell id="P9mcN9a8yqLOft1SeJQN-4" value="" style="group" vertex="1" connectable="0" parent="WIyWlLk6GJQsqaUBKTNV-1">
          <mxGeometry x="550" y="460" width="200" height="120" as="geometry" />
        </mxCell>
        <mxCell id="P9mcN9a8yqLOft1SeJQN-1" value="Class Name" style="rounded=0;whiteSpace=wrap;html=1;" vertex="1" parent="P9mcN9a8yqLOft1SeJQN-4">
          <mxGeometry width="200" height="40" as="geometry" />
        </mxCell>
        <mxCell id="P9mcN9a8yqLOft1SeJQN-2" value="Attribute" style="rounded=0;whiteSpace=wrap;html=1;align=left;spacingLeft=10;" vertex="1" parent="P9mcN9a8yqLOft1SeJQN-4">
          <mxGeometry y="40" width="200" height="40" as="geometry" />
        </mxCell>
        <mxCell id="P9mcN9a8yqLOft1SeJQN-3" value="Object Function" style="rounded=0;whiteSpace=wrap;html=1;align=left;spacingLeft=10;" vertex="1" parent="P9mcN9a8yqLOft1SeJQN-4">
          <mxGeometry y="80" width="200" height="40" as="geometry" />
        </mxCell>
        <mxCell id="P9mcN9a8yqLOft1SeJQN-5" value="" style="group" vertex="1" connectable="0" parent="WIyWlLk6GJQsqaUBKTNV-1">
          <mxGeometry x="1241" y="160" width="200" height="120" as="geometry" />
        </mxCell>
        <mxCell id="P9mcN9a8yqLOft1SeJQN-6" value="UI" style="rounded=0;whiteSpace=wrap;html=1;" vertex="1" parent="P9mcN9a8yqLOft1SeJQN-5">
          <mxGeometry width="200" height="40" as="geometry" />
        </mxCell>
        <mxCell id="P9mcN9a8yqLOft1SeJQN-7" value="Attribute" style="rounded=0;whiteSpace=wrap;html=1;align=left;spacingLeft=10;" vertex="1" parent="P9mcN9a8yqLOft1SeJQN-5">
          <mxGeometry y="40" width="200" height="40" as="geometry" />
        </mxCell>
        <mxCell id="P9mcN9a8yqLOft1SeJQN-8" value="Object Function" style="rounded=0;whiteSpace=wrap;html=1;align=left;spacingLeft=10;" vertex="1" parent="P9mcN9a8yqLOft1SeJQN-5">
          <mxGeometry y="80" width="200" height="40" as="geometry" />
        </mxCell>
        <mxCell id="P9mcN9a8yqLOft1SeJQN-12" value="" style="group" vertex="1" connectable="0" parent="WIyWlLk6GJQsqaUBKTNV-1">
          <mxGeometry x="960" y="400" width="200" height="120" as="geometry" />
        </mxCell>
        <mxCell id="P9mcN9a8yqLOft1SeJQN-13" value="Score" style="rounded=0;whiteSpace=wrap;html=1;" vertex="1" parent="P9mcN9a8yqLOft1SeJQN-12">
          <mxGeometry width="200" height="40" as="geometry" />
        </mxCell>
        <mxCell id="P9mcN9a8yqLOft1SeJQN-14" value="Attribute" style="rounded=0;whiteSpace=wrap;html=1;align=left;spacingLeft=10;" vertex="1" parent="P9mcN9a8yqLOft1SeJQN-12">
          <mxGeometry y="40" width="200" height="40" as="geometry" />
        </mxCell>
        <mxCell id="P9mcN9a8yqLOft1SeJQN-15" value="Object Function" style="rounded=0;whiteSpace=wrap;html=1;align=left;spacingLeft=10;" vertex="1" parent="P9mcN9a8yqLOft1SeJQN-12">
          <mxGeometry y="80" width="200" height="40" as="geometry" />
        </mxCell>
        <mxCell id="P9mcN9a8yqLOft1SeJQN-17" value="" style="group" vertex="1" connectable="0" parent="WIyWlLk6GJQsqaUBKTNV-1">
          <mxGeometry x="1520" y="400" width="200" height="120" as="geometry" />
        </mxCell>
        <mxCell id="P9mcN9a8yqLOft1SeJQN-18" value="Button" style="rounded=0;whiteSpace=wrap;html=1;" vertex="1" parent="P9mcN9a8yqLOft1SeJQN-17">
          <mxGeometry width="200" height="40" as="geometry" />
        </mxCell>
        <mxCell id="P9mcN9a8yqLOft1SeJQN-19" value="Attribute" style="rounded=0;whiteSpace=wrap;html=1;align=left;spacingLeft=10;" vertex="1" parent="P9mcN9a8yqLOft1SeJQN-17">
          <mxGeometry y="40" width="200" height="40" as="geometry" />
        </mxCell>
        <mxCell id="P9mcN9a8yqLOft1SeJQN-20" value="Object Function" style="rounded=0;whiteSpace=wrap;html=1;align=left;spacingLeft=10;" vertex="1" parent="P9mcN9a8yqLOft1SeJQN-17">
          <mxGeometry y="80" width="200" height="40" as="geometry" />
        </mxCell>
        <mxCell id="P9mcN9a8yqLOft1SeJQN-21" value="" style="group" vertex="1" connectable="0" parent="WIyWlLk6GJQsqaUBKTNV-1">
          <mxGeometry x="1240.5" y="400" width="200" height="120" as="geometry" />
        </mxCell>
        <mxCell id="P9mcN9a8yqLOft1SeJQN-22" value="SudokuGrid" style="rounded=0;whiteSpace=wrap;html=1;" vertex="1" parent="P9mcN9a8yqLOft1SeJQN-21">
          <mxGeometry width="200" height="40" as="geometry" />
        </mxCell>
        <mxCell id="P9mcN9a8yqLOft1SeJQN-23" value="Attribute" style="rounded=0;whiteSpace=wrap;html=1;align=left;spacingLeft=10;" vertex="1" parent="P9mcN9a8yqLOft1SeJQN-21">
          <mxGeometry y="40" width="200" height="40" as="geometry" />
        </mxCell>
        <mxCell id="P9mcN9a8yqLOft1SeJQN-24" value="Object Function" style="rounded=0;whiteSpace=wrap;html=1;align=left;spacingLeft=10;" vertex="1" parent="P9mcN9a8yqLOft1SeJQN-21">
          <mxGeometry y="80" width="200" height="40" as="geometry" />
        </mxCell>
        <mxCell id="P9mcN9a8yqLOft1SeJQN-26" style="edgeStyle=orthogonalEdgeStyle;rounded=0;orthogonalLoop=1;jettySize=auto;html=1;fontSize=20;startArrow=block;startFill=0;endArrow=none;endFill=0;" edge="1" parent="WIyWlLk6GJQsqaUBKTNV-1" source="P9mcN9a8yqLOft1SeJQN-7" target="P9mcN9a8yqLOft1SeJQN-13">
          <mxGeometry relative="1" as="geometry" />
        </mxCell>
        <mxCell id="P9mcN9a8yqLOft1SeJQN-27" style="edgeStyle=orthogonalEdgeStyle;rounded=0;orthogonalLoop=1;jettySize=auto;html=1;fontSize=20;startArrow=none;startFill=0;endArrow=block;endFill=0;" edge="1" parent="WIyWlLk6GJQsqaUBKTNV-1" source="P9mcN9a8yqLOft1SeJQN-22">
          <mxGeometry relative="1" as="geometry">
            <mxPoint x="1340.5" y="280" as="targetPoint" />
          </mxGeometry>
        </mxCell>
        <mxCell id="P9mcN9a8yqLOft1SeJQN-28" style="edgeStyle=orthogonalEdgeStyle;rounded=0;orthogonalLoop=1;jettySize=auto;html=1;entryX=1;entryY=0.5;entryDx=0;entryDy=0;fontSize=20;startArrow=none;startFill=0;endArrow=block;endFill=0;exitX=0.5;exitY=0;exitDx=0;exitDy=0;" edge="1" parent="WIyWlLk6GJQsqaUBKTNV-1" source="P9mcN9a8yqLOft1SeJQN-18" target="P9mcN9a8yqLOft1SeJQN-7">
          <mxGeometry relative="1" as="geometry" />
        </mxCell>
        <mxCell id="P9mcN9a8yqLOft1SeJQN-33" value="" style="edgeStyle=orthogonalEdgeStyle;rounded=0;orthogonalLoop=1;jettySize=auto;html=1;fontSize=12;startArrow=none;startFill=0;endArrow=openThin;endFill=0;" edge="1" parent="WIyWlLk6GJQsqaUBKTNV-1" source="P9mcN9a8yqLOft1SeJQN-30" target="P9mcN9a8yqLOft1SeJQN-32">
          <mxGeometry relative="1" as="geometry" />
        </mxCell>
        <mxCell id="P9mcN9a8yqLOft1SeJQN-30" value="Setting Program" style="rounded=0;whiteSpace=wrap;html=1;fontSize=12;" vertex="1" parent="WIyWlLk6GJQsqaUBKTNV-1">
          <mxGeometry x="980" y="735" width="300" height="25" as="geometry" />
        </mxCell>
        <mxCell id="P9mcN9a8yqLOft1SeJQN-43" value="" style="edgeStyle=orthogonalEdgeStyle;rounded=0;orthogonalLoop=1;jettySize=auto;html=1;fontSize=12;startArrow=none;startFill=0;endArrow=openThin;endFill=0;" edge="1" parent="WIyWlLk6GJQsqaUBKTNV-1" source="P9mcN9a8yqLOft1SeJQN-32" target="P9mcN9a8yqLOft1SeJQN-42">
          <mxGeometry relative="1" as="geometry" />
        </mxCell>
        <mxCell id="P9mcN9a8yqLOft1SeJQN-32" value="Setting Sudoku Grid, --&amp;gt;(GenerateNew)" style="whiteSpace=wrap;html=1;rounded=0;" vertex="1" parent="WIyWlLk6GJQsqaUBKTNV-1">
          <mxGeometry x="1015" y="805" width="230" height="30" as="geometry" />
        </mxCell>
        <mxCell id="P9mcN9a8yqLOft1SeJQN-45" value="" style="edgeStyle=orthogonalEdgeStyle;rounded=0;orthogonalLoop=1;jettySize=auto;html=1;fontSize=12;startArrow=none;startFill=0;endArrow=openThin;endFill=0;exitX=0;exitY=0.5;exitDx=0;exitDy=0;" edge="1" parent="WIyWlLk6GJQsqaUBKTNV-1" source="P9mcN9a8yqLOft1SeJQN-42" target="P9mcN9a8yqLOft1SeJQN-44">
          <mxGeometry relative="1" as="geometry" />
        </mxCell>
        <mxCell id="P9mcN9a8yqLOft1SeJQN-47" value="" style="edgeStyle=orthogonalEdgeStyle;rounded=0;orthogonalLoop=1;jettySize=auto;html=1;fontSize=12;startArrow=none;startFill=0;endArrow=openThin;endFill=0;" edge="1" parent="WIyWlLk6GJQsqaUBKTNV-1" source="P9mcN9a8yqLOft1SeJQN-42" target="P9mcN9a8yqLOft1SeJQN-46">
          <mxGeometry relative="1" as="geometry" />
        </mxCell>
        <mxCell id="P9mcN9a8yqLOft1SeJQN-59" value="" style="edgeStyle=orthogonalEdgeStyle;rounded=0;orthogonalLoop=1;jettySize=auto;html=1;fontSize=12;startArrow=none;startFill=0;endArrow=openThin;endFill=0;" edge="1" parent="WIyWlLk6GJQsqaUBKTNV-1" source="P9mcN9a8yqLOft1SeJQN-42" target="P9mcN9a8yqLOft1SeJQN-58">
          <mxGeometry relative="1" as="geometry" />
        </mxCell>
        <mxCell id="P9mcN9a8yqLOft1SeJQN-67" value="" style="edgeStyle=orthogonalEdgeStyle;rounded=0;orthogonalLoop=1;jettySize=auto;html=1;fontSize=12;startArrow=none;startFill=0;endArrow=openThin;endFill=0;" edge="1" parent="WIyWlLk6GJQsqaUBKTNV-1" source="P9mcN9a8yqLOft1SeJQN-42" target="P9mcN9a8yqLOft1SeJQN-66">
          <mxGeometry relative="1" as="geometry" />
        </mxCell>
        <mxCell id="P9mcN9a8yqLOft1SeJQN-42" value="switchstatement(EditMode_e)" style="whiteSpace=wrap;html=1;rounded=0;" vertex="1" parent="WIyWlLk6GJQsqaUBKTNV-1">
          <mxGeometry x="1035" y="910" width="190" height="30" as="geometry" />
        </mxCell>
        <mxCell id="P9mcN9a8yqLOft1SeJQN-51" value="True" style="edgeStyle=orthogonalEdgeStyle;rounded=0;orthogonalLoop=1;jettySize=auto;html=1;fontSize=12;startArrow=none;startFill=0;endArrow=openThin;endFill=0;" edge="1" parent="WIyWlLk6GJQsqaUBKTNV-1" source="P9mcN9a8yqLOft1SeJQN-44" target="P9mcN9a8yqLOft1SeJQN-50">
          <mxGeometry relative="1" as="geometry" />
        </mxCell>
        <mxCell id="P9mcN9a8yqLOft1SeJQN-44" value="if(GenerateNew)" style="rhombus;whiteSpace=wrap;html=1;rounded=0;" vertex="1" parent="WIyWlLk6GJQsqaUBKTNV-1">
          <mxGeometry x="800" y="950" width="260" height="50" as="geometry" />
        </mxCell>
        <mxCell id="P9mcN9a8yqLOft1SeJQN-53" value="" style="edgeStyle=orthogonalEdgeStyle;rounded=0;orthogonalLoop=1;jettySize=auto;html=1;fontSize=12;startArrow=none;startFill=0;endArrow=openThin;endFill=0;" edge="1" parent="WIyWlLk6GJQsqaUBKTNV-1" source="P9mcN9a8yqLOft1SeJQN-46" target="P9mcN9a8yqLOft1SeJQN-52">
          <mxGeometry relative="1" as="geometry" />
        </mxCell>
        <mxCell id="P9mcN9a8yqLOft1SeJQN-64" value="True" style="edgeLabel;html=1;align=center;verticalAlign=middle;resizable=0;points=[];fontSize=12;" vertex="1" connectable="0" parent="P9mcN9a8yqLOft1SeJQN-53">
          <mxGeometry x="-0.1853" y="-1" relative="1" as="geometry">
            <mxPoint as="offset" />
          </mxGeometry>
        </mxCell>
        <mxCell id="P9mcN9a8yqLOft1SeJQN-46" value="if(ManualEntry)" style="rhombus;whiteSpace=wrap;html=1;rounded=0;" vertex="1" parent="WIyWlLk6GJQsqaUBKTNV-1">
          <mxGeometry x="508" y="950" width="260" height="50" as="geometry" />
        </mxCell>
        <mxCell id="P9mcN9a8yqLOft1SeJQN-49" value="" style="group" vertex="1" connectable="0" parent="WIyWlLk6GJQsqaUBKTNV-1">
          <mxGeometry x="-230" y="660" width="460" height="240" as="geometry" />
        </mxCell>
        <mxCell id="P9mcN9a8yqLOft1SeJQN-74" value="Edit Mode" style="rounded=1;whiteSpace=wrap;html=1;fontSize=12;fillColor=#808080;fontColor=#FFFFFF;strokeColor=#666666;verticalAlign=top;" vertex="1" parent="P9mcN9a8yqLOft1SeJQN-49">
          <mxGeometry y="-23.75" width="460" height="60" as="geometry" />
        </mxCell>
        <mxCell id="B90FuW63Qu4j7vBEfolB-0" value="" style="rounded=0;whiteSpace=wrap;html=1;fillColor=#000000;" parent="P9mcN9a8yqLOft1SeJQN-49" vertex="1">
          <mxGeometry width="460" height="240" as="geometry" />
        </mxCell>
        <mxCell id="B90FuW63Qu4j7vBEfolB-2" value="Sudoku" style="whiteSpace=wrap;html=1;aspect=fixed;fillColor=#007FFF;fontColor=#FF9999;fontSize=20;" parent="P9mcN9a8yqLOft1SeJQN-49" vertex="1">
          <mxGeometry x="20" y="20" width="200" height="200" as="geometry" />
        </mxCell>
        <mxCell id="B90FuW63Qu4j7vBEfolB-3" value="Manual Entry" style="rounded=0;whiteSpace=wrap;html=1;fontColor=#007FFF;fillColor=#FFFFFF;" parent="P9mcN9a8yqLOft1SeJQN-49" vertex="1">
          <mxGeometry x="230" y="190" width="100" height="30" as="geometry" />
        </mxCell>
        <mxCell id="B90FuW63Qu4j7vBEfolB-5" value="Play" style="rounded=0;whiteSpace=wrap;html=1;fontColor=#007FFF;fillColor=#FFFFFF;" parent="P9mcN9a8yqLOft1SeJQN-49" vertex="1">
          <mxGeometry x="338" y="190" width="100" height="30" as="geometry" />
        </mxCell>
        <mxCell id="B90FuW63Qu4j7vBEfolB-6" value="Time" style="rounded=0;whiteSpace=wrap;html=1;fontSize=12;fontColor=#007FFF;fillColor=#CCFF99;" parent="P9mcN9a8yqLOft1SeJQN-49" vertex="1">
          <mxGeometry x="230" y="20" width="210" height="30" as="geometry" />
        </mxCell>
        <mxCell id="B90FuW63Qu4j7vBEfolB-8" value="Generate New" style="rounded=0;whiteSpace=wrap;html=1;fontColor=#007FFF;fillColor=#FFFFFF;" parent="P9mcN9a8yqLOft1SeJQN-49" vertex="1">
          <mxGeometry x="230" y="150" width="100" height="30" as="geometry" />
        </mxCell>
        <mxCell id="B90FuW63Qu4j7vBEfolB-10" value="Show Solution" style="rounded=0;whiteSpace=wrap;html=1;fontColor=#007FFF;fillColor=#FFFFFF;" parent="P9mcN9a8yqLOft1SeJQN-49" vertex="1">
          <mxGeometry x="338" y="150" width="100" height="30" as="geometry" />
        </mxCell>
        <mxCell id="B90FuW63Qu4j7vBEfolB-12" value="Entry Time Count" style="rounded=0;whiteSpace=wrap;html=1;fontSize=12;fontColor=#007FFF;fillColor=#CCFF99;" parent="P9mcN9a8yqLOft1SeJQN-49" vertex="1">
          <mxGeometry x="230" y="60" width="210" height="30" as="geometry" />
        </mxCell>
        <mxCell id="P9mcN9a8yqLOft1SeJQN-57" style="edgeStyle=orthogonalEdgeStyle;rounded=0;orthogonalLoop=1;jettySize=auto;html=1;entryX=0.5;entryY=0;entryDx=0;entryDy=0;fontSize=12;startArrow=none;startFill=0;endArrow=openThin;endFill=0;" edge="1" parent="WIyWlLk6GJQsqaUBKTNV-1" source="P9mcN9a8yqLOft1SeJQN-50" target="P9mcN9a8yqLOft1SeJQN-54">
          <mxGeometry relative="1" as="geometry" />
        </mxCell>
        <mxCell id="P9mcN9a8yqLOft1SeJQN-50" value="Randomly Generate Sudoku Grid Value" style="whiteSpace=wrap;html=1;rounded=0;" vertex="1" parent="WIyWlLk6GJQsqaUBKTNV-1">
          <mxGeometry x="817.5" y="1045" width="225" height="20" as="geometry" />
        </mxCell>
        <mxCell id="P9mcN9a8yqLOft1SeJQN-55" value="" style="edgeStyle=orthogonalEdgeStyle;rounded=0;orthogonalLoop=1;jettySize=auto;html=1;fontSize=12;startArrow=none;startFill=0;endArrow=openThin;endFill=0;" edge="1" parent="WIyWlLk6GJQsqaUBKTNV-1" source="P9mcN9a8yqLOft1SeJQN-52" target="P9mcN9a8yqLOft1SeJQN-54">
          <mxGeometry relative="1" as="geometry" />
        </mxCell>
        <mxCell id="P9mcN9a8yqLOft1SeJQN-52" value="Allow user to manually edit value of sudoku Grid" style="whiteSpace=wrap;html=1;rounded=0;" vertex="1" parent="WIyWlLk6GJQsqaUBKTNV-1">
          <mxGeometry x="498.25" y="1050" width="279.5" height="25" as="geometry" />
        </mxCell>
        <mxCell id="P9mcN9a8yqLOft1SeJQN-60" style="edgeStyle=orthogonalEdgeStyle;rounded=0;orthogonalLoop=1;jettySize=auto;html=1;entryX=0.023;entryY=0.516;entryDx=0;entryDy=0;entryPerimeter=0;fontSize=12;startArrow=none;startFill=0;endArrow=openThin;endFill=0;" edge="1" parent="WIyWlLk6GJQsqaUBKTNV-1" source="P9mcN9a8yqLOft1SeJQN-54" target="P9mcN9a8yqLOft1SeJQN-58">
          <mxGeometry relative="1" as="geometry" />
        </mxCell>
        <mxCell id="P9mcN9a8yqLOft1SeJQN-54" value="Updating Sudoku Grid Value" style="whiteSpace=wrap;html=1;rounded=0;" vertex="1" parent="WIyWlLk6GJQsqaUBKTNV-1">
          <mxGeometry x="668" y="1160" width="230" height="20" as="geometry" />
        </mxCell>
        <mxCell id="P9mcN9a8yqLOft1SeJQN-63" value="" style="edgeStyle=orthogonalEdgeStyle;rounded=0;orthogonalLoop=1;jettySize=auto;html=1;fontSize=12;startArrow=none;startFill=0;endArrow=openThin;endFill=0;" edge="1" parent="WIyWlLk6GJQsqaUBKTNV-1" source="P9mcN9a8yqLOft1SeJQN-58" target="P9mcN9a8yqLOft1SeJQN-62">
          <mxGeometry relative="1" as="geometry" />
        </mxCell>
        <mxCell id="P9mcN9a8yqLOft1SeJQN-65" value="True" style="edgeLabel;html=1;align=center;verticalAlign=middle;resizable=0;points=[];fontSize=12;" vertex="1" connectable="0" parent="P9mcN9a8yqLOft1SeJQN-63">
          <mxGeometry x="-0.3389" relative="1" as="geometry">
            <mxPoint as="offset" />
          </mxGeometry>
        </mxCell>
        <mxCell id="P9mcN9a8yqLOft1SeJQN-58" value="if(Play)" style="rhombus;whiteSpace=wrap;html=1;rounded=0;" vertex="1" parent="WIyWlLk6GJQsqaUBKTNV-1">
          <mxGeometry x="1015" y="1145" width="230" height="50" as="geometry" />
        </mxCell>
        <mxCell id="P9mcN9a8yqLOft1SeJQN-68" style="edgeStyle=orthogonalEdgeStyle;rounded=0;orthogonalLoop=1;jettySize=auto;html=1;entryX=0.5;entryY=1;entryDx=0;entryDy=0;fontSize=12;startArrow=none;startFill=0;endArrow=openThin;endFill=0;" edge="1" parent="WIyWlLk6GJQsqaUBKTNV-1" source="P9mcN9a8yqLOft1SeJQN-62" target="P9mcN9a8yqLOft1SeJQN-66">
          <mxGeometry relative="1" as="geometry" />
        </mxCell>
        <mxCell id="P9mcN9a8yqLOft1SeJQN-69" value="//User want to see real solution." style="edgeLabel;html=1;align=center;verticalAlign=middle;resizable=0;points=[];fontSize=12;" vertex="1" connectable="0" parent="P9mcN9a8yqLOft1SeJQN-68">
          <mxGeometry x="-0.0531" y="1" relative="1" as="geometry">
            <mxPoint as="offset" />
          </mxGeometry>
        </mxCell>
        <mxCell id="P9mcN9a8yqLOft1SeJQN-62" value="&lt;span&gt;Allow user to solve Sudoku problem.&lt;/span&gt;" style="whiteSpace=wrap;html=1;rounded=0;" vertex="1" parent="WIyWlLk6GJQsqaUBKTNV-1">
          <mxGeometry x="1320" y="1160" width="430" height="20" as="geometry" />
        </mxCell>
        <mxCell id="P9mcN9a8yqLOft1SeJQN-71" value="True" style="edgeStyle=orthogonalEdgeStyle;rounded=0;orthogonalLoop=1;jettySize=auto;html=1;fontSize=12;startArrow=none;startFill=0;endArrow=openThin;endFill=0;" edge="1" parent="WIyWlLk6GJQsqaUBKTNV-1" source="P9mcN9a8yqLOft1SeJQN-66" target="P9mcN9a8yqLOft1SeJQN-70">
          <mxGeometry relative="1" as="geometry" />
        </mxCell>
        <mxCell id="P9mcN9a8yqLOft1SeJQN-66" value="if(ShowSolution)" style="rhombus;whiteSpace=wrap;html=1;rounded=0;" vertex="1" parent="WIyWlLk6GJQsqaUBKTNV-1">
          <mxGeometry x="1375" y="903.75" width="320" height="42.5" as="geometry" />
        </mxCell>
        <mxCell id="P9mcN9a8yqLOft1SeJQN-92" value="" style="edgeStyle=orthogonalEdgeStyle;rounded=0;orthogonalLoop=1;jettySize=auto;html=1;fontSize=12;fontColor=#FFFFFF;startArrow=none;startFill=0;endArrow=openThin;endFill=0;" edge="1" parent="WIyWlLk6GJQsqaUBKTNV-1" source="P9mcN9a8yqLOft1SeJQN-70" target="P9mcN9a8yqLOft1SeJQN-91">
          <mxGeometry relative="1" as="geometry" />
        </mxCell>
        <mxCell id="P9mcN9a8yqLOft1SeJQN-70" value="Computer solves sudoku automatically.&lt;br&gt;Then it calculate&amp;nbsp;" style="whiteSpace=wrap;html=1;rounded=0;" vertex="1" parent="WIyWlLk6GJQsqaUBKTNV-1">
          <mxGeometry x="1790" y="892.5" width="230" height="57.5" as="geometry" />
        </mxCell>
        <mxCell id="P9mcN9a8yqLOft1SeJQN-75" value="" style="group" vertex="1" connectable="0" parent="WIyWlLk6GJQsqaUBKTNV-1">
          <mxGeometry x="-250" y="970" width="460" height="240" as="geometry" />
        </mxCell>
        <mxCell id="P9mcN9a8yqLOft1SeJQN-76" value="Play Mode" style="rounded=1;whiteSpace=wrap;html=1;fontSize=12;fillColor=#808080;fontColor=#FFFFFF;strokeColor=#666666;verticalAlign=top;" vertex="1" parent="P9mcN9a8yqLOft1SeJQN-75">
          <mxGeometry y="-23.75" width="460" height="60" as="geometry" />
        </mxCell>
        <mxCell id="P9mcN9a8yqLOft1SeJQN-77" value="" style="rounded=0;whiteSpace=wrap;html=1;fillColor=#000000;" vertex="1" parent="P9mcN9a8yqLOft1SeJQN-75">
          <mxGeometry width="460" height="240" as="geometry" />
        </mxCell>
        <mxCell id="P9mcN9a8yqLOft1SeJQN-78" value="Sudoku" style="whiteSpace=wrap;html=1;aspect=fixed;fillColor=#007FFF;fontColor=#FF9999;fontSize=20;" vertex="1" parent="P9mcN9a8yqLOft1SeJQN-75">
          <mxGeometry x="20" y="20" width="200" height="200" as="geometry" />
        </mxCell>
        <mxCell id="P9mcN9a8yqLOft1SeJQN-79" value="Manual Entry" style="rounded=0;whiteSpace=wrap;html=1;fontColor=#007FFF;fillColor=#FFFFFF;" vertex="1" parent="P9mcN9a8yqLOft1SeJQN-75">
          <mxGeometry x="230" y="190" width="100" height="30" as="geometry" />
        </mxCell>
        <mxCell id="P9mcN9a8yqLOft1SeJQN-80" value="Play" style="rounded=0;whiteSpace=wrap;html=1;fontColor=#007FFF;fillColor=#FFFFFF;" vertex="1" parent="P9mcN9a8yqLOft1SeJQN-75">
          <mxGeometry x="338" y="190" width="100" height="30" as="geometry" />
        </mxCell>
        <mxCell id="P9mcN9a8yqLOft1SeJQN-81" value="Time" style="rounded=0;whiteSpace=wrap;html=1;fontSize=12;fontColor=#007FFF;fillColor=#CCFF99;" vertex="1" parent="P9mcN9a8yqLOft1SeJQN-75">
          <mxGeometry x="230" y="20" width="210" height="30" as="geometry" />
        </mxCell>
        <mxCell id="P9mcN9a8yqLOft1SeJQN-82" value="Generate New" style="rounded=0;whiteSpace=wrap;html=1;fontColor=#007FFF;fillColor=#FFFFFF;" vertex="1" parent="P9mcN9a8yqLOft1SeJQN-75">
          <mxGeometry x="230" y="150" width="100" height="30" as="geometry" />
        </mxCell>
        <mxCell id="P9mcN9a8yqLOft1SeJQN-83" value="Show Solution" style="rounded=0;whiteSpace=wrap;html=1;fontColor=#007FFF;fillColor=#FFFFFF;" vertex="1" parent="P9mcN9a8yqLOft1SeJQN-75">
          <mxGeometry x="338" y="150" width="100" height="30" as="geometry" />
        </mxCell>
        <mxCell id="P9mcN9a8yqLOft1SeJQN-84" value="Entry Time Count" style="rounded=0;whiteSpace=wrap;html=1;fontSize=12;fontColor=#007FFF;fillColor=#CCFF99;" vertex="1" parent="P9mcN9a8yqLOft1SeJQN-75">
          <mxGeometry x="230" y="60" width="210" height="30" as="geometry" />
        </mxCell>
        <mxCell id="P9mcN9a8yqLOft1SeJQN-94" value="" style="edgeStyle=orthogonalEdgeStyle;rounded=0;orthogonalLoop=1;jettySize=auto;html=1;fontSize=12;fontColor=#FFFFFF;startArrow=none;startFill=0;endArrow=openThin;endFill=0;" edge="1" parent="WIyWlLk6GJQsqaUBKTNV-1" source="P9mcN9a8yqLOft1SeJQN-91" target="P9mcN9a8yqLOft1SeJQN-93">
          <mxGeometry relative="1" as="geometry" />
        </mxCell>
        <mxCell id="P9mcN9a8yqLOft1SeJQN-97" value="" style="edgeStyle=orthogonalEdgeStyle;rounded=0;orthogonalLoop=1;jettySize=auto;html=1;fontSize=12;fontColor=#000000;startArrow=none;startFill=0;endArrow=openThin;endFill=0;" edge="1" parent="WIyWlLk6GJQsqaUBKTNV-1" source="P9mcN9a8yqLOft1SeJQN-91" target="P9mcN9a8yqLOft1SeJQN-96">
          <mxGeometry relative="1" as="geometry" />
        </mxCell>
        <mxCell id="P9mcN9a8yqLOft1SeJQN-91" value="switchstatement(SolutionMode_e)" style="whiteSpace=wrap;html=1;rounded=0;" vertex="1" parent="WIyWlLk6GJQsqaUBKTNV-1">
          <mxGeometry x="1810.31" y="810" width="189.38" height="20" as="geometry" />
        </mxCell>
        <mxCell id="P9mcN9a8yqLOft1SeJQN-95" value="&lt;font color=&quot;#000000&quot;&gt;&lt;span&gt;True&lt;/span&gt;&lt;/font&gt;" style="edgeStyle=orthogonalEdgeStyle;rounded=0;orthogonalLoop=1;jettySize=auto;html=1;entryX=1;entryY=0.5;entryDx=0;entryDy=0;fontSize=12;fontColor=#FFFFFF;startArrow=none;startFill=0;endArrow=openThin;endFill=0;" edge="1" parent="WIyWlLk6GJQsqaUBKTNV-1" source="P9mcN9a8yqLOft1SeJQN-93" target="P9mcN9a8yqLOft1SeJQN-32">
          <mxGeometry relative="1" as="geometry" />
        </mxCell>
        <mxCell id="P9mcN9a8yqLOft1SeJQN-93" value="if(newGame)" style="rhombus;whiteSpace=wrap;html=1;rounded=0;" vertex="1" parent="WIyWlLk6GJQsqaUBKTNV-1">
          <mxGeometry x="1405" y="805" width="260" height="30" as="geometry" />
        </mxCell>
        <mxCell id="P9mcN9a8yqLOft1SeJQN-98" value="True" style="edgeStyle=orthogonalEdgeStyle;rounded=0;orthogonalLoop=1;jettySize=auto;html=1;fontSize=12;fontColor=#000000;startArrow=none;startFill=0;endArrow=openThin;endFill=0;entryX=1;entryY=0.5;entryDx=0;entryDy=0;" edge="1" parent="WIyWlLk6GJQsqaUBKTNV-1" source="P9mcN9a8yqLOft1SeJQN-96" target="P9mcN9a8yqLOft1SeJQN-70">
          <mxGeometry relative="1" as="geometry">
            <mxPoint x="2221.87" y="960" as="targetPoint" />
          </mxGeometry>
        </mxCell>
        <mxCell id="P9mcN9a8yqLOft1SeJQN-96" value="if(showOtherSolution)" style="rhombus;whiteSpace=wrap;html=1;rounded=0;" vertex="1" parent="WIyWlLk6GJQsqaUBKTNV-1">
          <mxGeometry x="2150" y="910" width="243.74" height="30" as="geometry" />
        </mxCell>
        <mxCell id="P9mcN9a8yqLOft1SeJQN-115" value="&lt;span style=&quot;white-space: pre&quot;&gt;	Permanent Button&lt;br&gt;1. Description&lt;br&gt;2. Choose Sudoku Algorithm Solver&lt;br/&gt;3. File Access&lt;br&gt;&lt;/span&gt;" style="rounded=0;whiteSpace=wrap;html=1;fontSize=12;fontColor=#000000;fillColor=#FFFFFF;align=left;spacingLeft=10;" vertex="1" parent="WIyWlLk6GJQsqaUBKTNV-1">
          <mxGeometry x="643" y="735" width="280" height="90" as="geometry" />
        </mxCell>
      </root>
    </mxGraphModel>
  </diagram>
</mxfile>
